<svg width="28" height="28" viewBox="0 0 28 28" fill="none" xmlns="http://www.w3.org/2000/svg">
<mask id="mask0" mask-type="alpha" maskUnits="userSpaceOnUse" x="0" y="0" width="28" height="28">
<rect width="28" height="28" fill="#C4C4C4"/>
</mask>
<g mask="url(#mask0)">
<path d="M24.2083 9.43374H19.6233L20.0573 4.44974C20.0993 3.96907 19.7423 3.54558 19.2616 3.50241C18.7751 3.46741 18.3563 3.81741 18.3143 4.29924L17.8675 9.43257H10.4941L10.9258 4.4509C10.969 3.96906 10.6108 3.54558 10.1325 3.50241C9.64248 3.46741 9.22598 3.81741 9.18398 4.29924L8.73831 9.43257H4.12064C3.63764 9.43257 3.24564 9.82574 3.24564 10.3076C3.24564 10.7894 3.63764 11.1826 4.12064 11.1826H8.58665L7.94498 18.5641H3.20831C2.72531 18.5641 2.33331 18.9561 2.33331 19.4391C2.33331 19.9221 2.72531 20.3141 3.20831 20.3141H7.79331L7.35931 25.2981C7.31731 25.7787 7.67431 26.2022 8.15498 26.2454L8.23198 26.2489C8.68115 26.2489 9.06265 25.9047 9.10231 25.4486L9.54914 20.3152H16.9225L16.4908 25.2969C16.4488 25.7787 16.8058 26.2022 17.2865 26.2454L17.3635 26.2489C17.8126 26.2489 18.1941 25.9047 18.2338 25.4486L18.6795 20.3152H23.296C23.7778 20.3152 24.171 19.9221 24.171 19.4402C24.171 18.9584 23.7778 18.5652 23.296 18.5652H18.83L19.4716 11.1837H24.2083C24.6913 11.1837 25.0833 10.7917 25.0833 10.3087C25.0833 9.82574 24.6913 9.43374 24.2083 9.43374ZM17.0741 18.5641H9.70082L10.3425 11.1837H17.7158L17.0741 18.5641Z" fill="black"/>
</g>
</svg>
