<svg width="28" height="28" viewBox="0 0 28 28" fill="none" xmlns="http://www.w3.org/2000/svg">
<mask id="mask0" mask-type="alpha" maskUnits="userSpaceOnUse" x="0" y="0" width="28" height="28">
<rect width="28" height="28" fill="#C4C4C4"/>
</mask>
<g mask="url(#mask0)">
<path d="M26.4601 8.83515L14.6709 2.47331C14.3244 2.28665 13.9079 2.28665 13.5626 2.47331L1.77925 8.83515C1.21225 9.14315 1.00108 9.85013 1.30675 10.4171C1.51675 10.808 1.91925 11.0296 2.33342 11.0296C2.52009 11.0296 2.71142 10.9853 2.88759 10.8896L3.74392 10.4276L5.59892 23.5526C5.85092 24.969 7.12725 25.9583 8.70225 25.9583H19.5312C21.1062 25.9583 22.3826 24.969 22.6369 23.5223L24.4896 10.4265L25.3494 10.8908C25.9152 11.1976 26.6234 10.9865 26.9291 10.4195C27.2359 9.85247 27.0224 9.14431 26.4577 8.83864L26.4601 8.83515ZM14.1167 18.2676C12.0226 18.2676 10.3251 16.5701 10.3251 14.476C10.3251 12.3818 12.0226 10.6843 14.1167 10.6843C16.2109 10.6843 17.9084 12.3818 17.9084 14.476C17.9084 16.5701 16.2109 18.2676 14.1167 18.2676Z" fill="black"/>
</g>
</svg>
