<svg width="28" height="28" viewBox="0 0 28 28" fill="none" xmlns="http://www.w3.org/2000/svg">
<mask id="mask0" mask-type="alpha" maskUnits="userSpaceOnUse" x="0" y="0" width="28" height="28">
<rect width="28" height="28" fill="#C4C4C4"/>
</mask>
<g mask="url(#mask0)">
<path d="M23.0416 25.6666H4.95831C3.51165 25.6666 2.33331 24.4883 2.33331 23.0416V4.95831C2.33331 3.51165 3.51165 2.33331 4.95831 2.33331H23.0416C24.4883 2.33331 25.6666 3.51165 25.6666 4.95831V23.0416C25.6666 24.4883 24.4883 25.6666 23.0416 25.6666ZM4.95831 4.08331C4.47531 4.08331 4.08331 4.47648 4.08331 4.95831V23.0416C4.08331 23.5235 4.47531 23.9166 4.95831 23.9166H23.0416C23.5246 23.9166 23.9166 23.5235 23.9166 23.0416V4.95831C23.9166 4.47648 23.5246 4.08331 23.0416 4.08331H4.95831Z" fill="black"/>
<path d="M19.5417 9.91669H7.875C7.392 9.91669 7 9.52352 7 9.04169C7 8.55985 7.392 8.16669 7.875 8.16669H19.5417C20.0247 8.16669 20.4167 8.55752 20.4167 9.04169C20.4167 9.52585 20.0247 9.91669 19.5417 9.91669ZM19.5417 14.7117H7.875C7.392 14.7117 7 14.3197 7 13.8367C7 13.3537 7.392 12.9617 7.875 12.9617H19.5417C20.0247 12.9617 20.4167 13.3537 20.4167 13.8367C20.4167 14.3197 20.0247 14.7117 19.5417 14.7117ZM13.7083 19.5067H7.875C7.392 19.5067 7 19.1159 7 18.6317C7 18.1475 7.392 17.7567 7.875 17.7567H13.7083C14.1913 17.7567 14.5833 18.1499 14.5833 18.6317C14.5833 19.1135 14.1913 19.5067 13.7083 19.5067Z" fill="black"/>
</g>
</svg>
