<svg width="28" height="28" viewBox="0 0 28 28" fill="none" xmlns="http://www.w3.org/2000/svg">
<mask id="mask0" mask-type="alpha" maskUnits="userSpaceOnUse" x="0" y="0" width="28" height="28">
<rect width="28" height="28" fill="#C4C4C4"/>
</mask>
<g mask="url(#mask0)">
<path d="M25.314 19.2943C25.2907 19.2757 22.8174 17.381 22.8605 12.2593C22.8839 9.30533 21.9132 6.68032 20.1224 4.86848C18.5182 3.24332 16.3459 2.34498 14.0067 2.33331H13.9915C11.6535 2.34498 9.48121 3.24333 7.87587 4.86966C6.08621 6.68149 5.11321 9.30533 5.13888 12.2593C5.18205 17.311 2.78221 19.2208 2.68654 19.2943C2.38321 19.5195 2.25954 19.9127 2.37738 20.272C2.49638 20.6313 2.83236 20.8728 3.20803 20.8728H8.94805C9.06705 23.5678 11.2779 25.7262 13.9997 25.7262C16.7215 25.7262 18.93 23.5678 19.0479 20.8728H24.7902C25.1659 20.8728 25.5019 20.6325 25.6185 20.2732C25.7387 19.915 25.615 19.5206 25.3117 19.2955L25.314 19.2943ZM14.0009 23.9727C12.245 23.9727 10.8159 22.5995 10.7015 20.8717H17.3002C17.1835 22.5983 15.7567 23.975 14.0009 23.975V23.9727ZM5.11088 19.1217C5.97421 17.801 6.91688 15.589 6.88888 12.243C6.86788 9.72298 7.64021 7.59732 9.12071 6.09815C10.3959 4.80665 12.1307 4.09148 14.0009 4.08331C15.871 4.09265 17.6024 4.80666 18.8775 6.09933C20.3592 7.59849 21.1327 9.72299 21.1117 12.2442C21.0837 15.5902 22.0275 17.8033 22.8909 19.1228H5.11088V19.1217Z" fill="black"/>
</g>
</svg>
