<svg width="20" height="21" viewBox="0 0 20 21" fill="none" xmlns="http://www.w3.org/2000/svg">
<path d="M16.8626 12.675C16.5501 11.2208 14.911 9.75335 13.521 9.23751L13.0676 5.11418L14.3135 3.24585C14.4443 3.04918 14.4568 2.79751 14.3443 2.59001C14.2326 2.38168 14.0176 2.25418 13.7818 2.25418H6.16514C5.92847 2.25418 5.71347 2.38251 5.6018 2.59001C5.49014 2.79835 5.5018 3.05085 5.63347 3.24668L6.8818 5.11918L6.47847 9.23835C5.08847 9.75501 3.45097 11.2217 3.1418 12.6683C3.10847 12.8017 3.12847 13.005 3.2518 13.1633C3.33764 13.2733 3.50514 13.405 3.81847 13.405H7.20014L9.62014 18.9983C9.68514 19.1517 9.8368 19.25 10.0018 19.25C10.1668 19.25 10.3185 19.1517 10.3851 18.9983L12.8043 13.4042H16.1851C16.4985 13.4042 16.6651 13.2742 16.7518 13.1658C16.8735 13.0092 16.8951 12.8042 16.8643 12.6742L16.8626 12.675Z" fill="#536471"/>
</svg>
